HIERARCHY
ROOT Hips
{
    OFFSET 0.000000 0.000000 0.000000
    CHANNELS 6 Xposition Yposition Zposition Zrotation Xrotation Yrotation
    JOINT Spine
    {
        OFFSET -0.000000 7.305679 0.000000
        CHANNELS 3 Zrotation Xrotation Yrotation
        JOINT Spine1
        {
            OFFSET -0.000000 20.356625 0.000000
            CHANNELS 3 Zrotation Xrotation Yrotation
            JOINT Neck
            {
                OFFSET -0.000000 22.138498 0.000000
                CHANNELS 3 Zrotation Xrotation Yrotation
                JOINT Head
                {
                    OFFSET -0.000000 13.809516 1.781873
                    CHANNELS 3 Zrotation Xrotation Yrotation
                    End Site
                    {
                        OFFSET -0.000000 17.818729 0.000000
                    }
                }
            }
            JOINT LeftShoulder
            {
                OFFSET 3.599131 17.989975 0.023592
                CHANNELS 3 Zrotation Xrotation Yrotation
                JOINT LeftArm
                {
                    OFFSET 12.560995 0.000000 0.000000
                    CHANNELS 3 Zrotation Xrotation Yrotation
                    JOINT LeftForeArm
                    {
                        OFFSET 22.903347 0.000000 0.000000
                        CHANNELS 3 Zrotation Xrotation Yrotation
                        JOINT LeftHand
                        {
                            OFFSET 21.865294 0.000000 0.000000
                            CHANNELS 3 Zrotation Xrotation Yrotation
                            JOINT LeftHandThumb1
                            {
                                OFFSET 1.853706 -2.106484 2.949078
                                CHANNELS 3 Zrotation Xrotation Yrotation
                                JOINT LeftHandThumb2
                                {
                                    OFFSET 2.049154 0.000000 1.336405
                                    CHANNELS 3 Zrotation Xrotation Yrotation
                                    JOINT LeftHandThumb3
                                    {
                                        OFFSET 2.672809 0.000000 0.000000
                                        CHANNELS 3 Zrotation Xrotation Yrotation
                                        End Site
                                        {
                                            OFFSET 2.381303 0.000000 0.000000
                                        }
                                    }
                                }
                            }
                            JOINT LeftHandIndex1
                            {
                                OFFSET 7.583345 0.000000 2.949078
                                CHANNELS 3 Zrotation Xrotation Yrotation
                                JOINT LeftHandIndex2
                                {
                                    OFFSET 4.454682 0.000000 0.000000
                                    CHANNELS 3 Zrotation Xrotation Yrotation
                                    JOINT LeftHandIndex3
                                    {
                                        OFFSET 2.227341 0.000000 0.000000
                                        CHANNELS 3 Zrotation Xrotation Yrotation
                                        End Site
                                        {
                                            OFFSET 1.984419 0.000000 0.000000
                                        }
                                    }
                                }
                            }
                            JOINT LeftHandMiddle1
                            {
                                OFFSET 7.583345 0.000000 0.977409
                                CHANNELS 3 Zrotation Xrotation Yrotation
                                JOINT LeftHandMiddle2
                                {
                                    OFFSET 4.900151 0.000000 0.000000
                                    CHANNELS 3 Zrotation Xrotation Yrotation
                                    JOINT LeftHandMiddle3
                                    {
                                        OFFSET 2.672809 0.000000 0.000000
                                        CHANNELS 3 Zrotation Xrotation Yrotation
                                        End Site
                                        {
                                            OFFSET 2.381303 0.000000 0.000000
                                        }
                                    }
                                }
                            }
                            JOINT LeftHandRing1
                            {
                                OFFSET 7.162047 0.000000 -0.977409
                                CHANNELS 3 Zrotation Xrotation Yrotation
                                JOINT LeftHandRing2
                                {
                                    OFFSET 4.454682 0.000000 0.000000
                                    CHANNELS 3 Zrotation Xrotation Yrotation
                                    JOINT LeftHandRing3
                                    {
                                        OFFSET 2.227341 0.000000 0.000000
                                        CHANNELS 3 Zrotation Xrotation Yrotation
                                        End Site
                                        {
                                            OFFSET 1.984419 0.000000 0.000000
                                        }
                                    }
                                }
                            }
                            JOINT LeftHandPinky1
                            {
                                OFFSET 6.740750 0.000000 -2.949078
                                CHANNELS 3 Zrotation Xrotation Yrotation
                                JOINT LeftHandPinky2
                                {
                                    OFFSET 3.563746 0.000000 0.000000
                                    CHANNELS 3 Zrotation Xrotation Yrotation
                                    JOINT LeftHandPinky3
                                    {
                                        OFFSET 1.781873 0.000000 0.000000
                                        CHANNELS 3 Zrotation Xrotation Yrotation
                                        End Site
                                        {
                                            OFFSET 1.587536 0.000000 0.000000
                                        }
                                    }
                                }
                            }
                        }
                    }
                }
            }
            JOINT RightShoulder
            {
                OFFSET -3.506995 17.989975 0.023592
                CHANNELS 3 Zrotation Xrotation Yrotation
                JOINT RightArm
                {
                    OFFSET -12.560995 0.000000 0.000000
                    CHANNELS 3 Zrotation Xrotation Yrotation
                    JOINT RightForeArm
                    {
                        OFFSET -22.903347 0.000000 0.000000
                        CHANNELS 3 Zrotation Xrotation Yrotation
                        JOINT RightHand
                        {
                            OFFSET -21.865294 0.000000 0.000000
                            CHANNELS 3 Zrotation Xrotation Yrotation
                            JOINT RightHandThumb1
                            {
                                OFFSET -1.853706 -2.106484 2.949078
                                CHANNELS 3 Zrotation Xrotation Yrotation
                                JOINT RightHandThumb2
                                {
                                    OFFSET -2.049154 0.000000 1.336405
                                    CHANNELS 3 Zrotation Xrotation Yrotation
                                    JOINT RightHandThumb3
                                    {
                                        OFFSET -2.672809 0.000000 0.000000
                                        CHANNELS 3 Zrotation Xrotation Yrotation
                                        End Site
                                        {
                                            OFFSET -2.381303 0.000000 0.000000
                                        }
                                    }
                                }
                            }
                            JOINT RightHandIndex1
                            {
                                OFFSET -7.583345 0.000000 2.949078
                                CHANNELS 3 Zrotation Xrotation Yrotation
                                JOINT RightHandIndex2
                                {
                                    OFFSET -4.454682 0.000000 0.000000
                                    CHANNELS 3 Zrotation Xrotation Yrotation
                                    JOINT RightHandIndex3
                                    {
                                        OFFSET -2.227341 0.000000 0.000000
                                        CHANNELS 3 Zrotation Xrotation Yrotation
                                        End Site
                                        {
                                            OFFSET -1.984419 0.000000 0.000000
                                        }
                                    }
                                }
                            }
                            JOINT RightHandMiddle1
                            {
                                OFFSET -7.583345 0.000000 0.977409
                                CHANNELS 3 Zrotation Xrotation Yrotation
                                JOINT RightHandMiddle2
                                {
                                    OFFSET -4.900151 0.000000 0.000000
                                    CHANNELS 3 Zrotation Xrotation Yrotation
                                    JOINT RightHandMiddle3
                                    {
                                        OFFSET -2.672809 0.000000 0.000000
                                        CHANNELS 3 Zrotation Xrotation Yrotation
                                        End Site
                                        {
                                            OFFSET -2.381303 0.000000 0.000000
                                        }
                                    }
                                }
                            }
                            JOINT RightHandRing1
                            {
                                OFFSET -7.162047 0.000000 -0.977409
                                CHANNELS 3 Zrotation Xrotation Yrotation
                                JOINT RightHandRing2
                                {
                                    OFFSET -4.454682 0.000000 0.000000
                                    CHANNELS 3 Zrotation Xrotation Yrotation
                                    JOINT RightHandRing3
                                    {
                                        OFFSET -2.227341 0.000000 0.000000
                                        CHANNELS 3 Zrotation Xrotation Yrotation
                                        End Site
                                        {
                                            OFFSET -1.984419 0.000000 0.000000
                                        }
                                    }
                                }
                            }
                            JOINT RightHandPinky1
                            {
                                OFFSET -6.740750 0.000000 -2.949078
                                CHANNELS 3 Zrotation Xrotation Yrotation
                                JOINT RightHandPinky2
                                {
                                    OFFSET -3.563746 0.000000 0.000000
                                    CHANNELS 3 Zrotation Xrotation Yrotation
                                    JOINT RightHandPinky3
                                    {
                                        OFFSET -1.781873 0.000000 0.000000
                                        CHANNELS 3 Zrotation Xrotation Yrotation
                                        End Site
                                        {
                                            OFFSET -1.587536 0.000000 0.000000
                                        }
                                    }
                                }
                            }
                        }
                    }
                }
            }
        }
    }
    JOINT LeftUpLeg
    {
        OFFSET 8.909365 0.000000 0.000000
        CHANNELS 3 Zrotation Xrotation Yrotation
        JOINT LeftLeg
        {
            OFFSET -0.000000 -38.765560 0.000000
            CHANNELS 3 Zrotation Xrotation Yrotation
            JOINT LeftFoot
            {
                OFFSET -0.000000 -35.244961 0.000000
                CHANNELS 3 Zrotation Xrotation Yrotation
                JOINT LeftToeBase
                {
                    OFFSET -0.000000 -5.791087 13.364048
                    CHANNELS 3 Zrotation Xrotation Yrotation
                    End Site
                    {
                        OFFSET -0.000000 0.000000 3.563746
                    }
                }
            }
        }
    }
    JOINT RightUpLeg
    {
        OFFSET -8.909365 0.000000 0.000000
        CHANNELS 3 Zrotation Xrotation Yrotation
        JOINT RightLeg
        {
            OFFSET -0.000000 -38.765560 0.000000
            CHANNELS 3 Zrotation Xrotation Yrotation
            JOINT RightFoot
            {
                OFFSET -0.000000 -35.244961 0.000000
                CHANNELS 3 Zrotation Xrotation Yrotation
                JOINT RightToeBase
                {
                    OFFSET -0.000000 -5.791087 13.364048
                    CHANNELS 3 Zrotation Xrotation Yrotation
                    End Site
                    {
                        OFFSET -0.000000 0.000000 3.563746
                    }
                }
            }
        }
    }
}
MOTION
Frames:    4
Frame Time:    0.008333
-25.649250    71.999588    106.269310    6.610607    -2.455679    13.696829    4.116508    12.587242    -6.876625    -15.483113    17.627356    0.271712    14.758132    -0.089939    -4.517894    5.069774    -27.666382    -2.089822    8.400164    -0.027836    -10.350172    -50.998764    -13.473074    5.968968    59.455345    -18.013779    -41.664333    27.328089    -16.206236    31.482401    -5.196227    1.875504    -4.437725    0.000000    0.000000    0.000000    0.000000    0.000000    0.000000    0.433862    0.000000    -0.000000    0.000000    0.000000    0.000000    0.000000    0.000000    0.000000    -9.209261    -1.480639    4.263561    -19.191654    0.000000    0.000000    -9.595825    0.000000    0.000000    -18.730083    -3.650479    8.224791    -38.383308    0.000000    0.000000    -19.191650    0.000000    0.000000    -28.397289    -6.534264    11.886534    -58.156521    0.000000    0.000000    -29.078260    0.000000    0.000000    -16.932810    6.810898    -2.861630    42.141964    58.967918    -10.958430    -73.240280    -29.553469    71.649452    14.828784    -15.299984    8.226211    4.887769    2.143384    -0.344898    0.000000    0.000000    -2.296527    0.000000    0.000000    -4.593055    18.792326    2.684811    7.837895    37.952564    0.000000    -0.000000    18.976282    0.000000    -0.000000    33.371086    1.760976    4.400779    61.728214    0.000000    -0.000000    33.411228    0.000000    -0.000000    47.864147    0.004524    1.307706    85.503876    0.000000    -0.000000    47.846172    0.000000    -0.000000    62.689201    -2.552261    -1.317261    110.000000    0.000000    -0.000000    62.718544    0.000000    -0.000000    21.642948    -20.785517    9.920287    -1.586562    32.808537    8.244440    -23.376406    1.121386    -25.740896    0.411556    1.205351    -0.857270    -29.575504    -3.150915    7.976968    -11.193912    40.972038    12.462376    29.677809    -23.044287    12.840723    -0.697145    -7.364230    0.343356    
-25.562958    72.442177    106.302437    5.596713    -2.020258    13.644659    3.839354    12.564805    -6.210723    -14.125137    16.952372    0.183057    14.916902    -0.113877    -4.805883    4.974758    -27.231157    -2.401836    8.487574    0.165906    -10.104498    -52.490803    -13.055266    5.846789    60.246208    -18.391563    -42.624580    27.143723    -15.825792    31.471777    -5.277257    1.877668    -4.545678    0.000000    0.000000    0.000000    0.000000    0.000000    0.000000    0.228141    0.000000    -0.000000    0.000000    0.000000    0.000000    0.000000    0.000000    0.000000    -9.396008    -1.496998    4.270033    -19.291132    0.000000    0.000000    -9.645567    0.000000    0.000000    -18.896667    -3.682690    8.235738    -38.582264    0.000000    0.000000    -19.291136    0.000000    0.000000    -28.542221    -6.581999    11.900524    -58.457973    0.000000    0.000000    -29.228987    0.000000    0.000000    -16.537479    6.050853    -2.579810    46.339226    59.848553    -12.394308    -73.866707    -27.144489    70.207657    14.524715    -15.622967    7.201782    4.891263    2.137465    -0.332116    0.000000    0.000000    -2.283839    0.000000    0.000000    -4.567678    18.770813    2.637028    7.709565    37.897053    0.000000    -0.000000    18.948528    0.000000    -0.000000    33.468060    1.796315    4.387016    61.691017    0.000000    -0.000000    33.509731    0.000000    -0.000000    48.087543    0.142652    1.387350    85.485001    0.000000    -0.000000    48.070938    0.000000    -0.000000    63.050076    -2.293205    -1.165451    110.000000    0.000000    -0.000000    63.073399    0.000000    -0.000000    22.207867    -20.897362    10.145062    -1.203772    31.871296    7.981482    -23.361620    1.445142    -25.422913    0.414649    1.231811    -0.861279    -29.184778    -3.295057    7.077092    -10.203245    39.623451    11.621680    29.161991    -21.420027    13.106411    -0.721192    -7.506934    0.367461    
-25.467226    72.881760    106.344093    4.568538    -1.565589    13.561278    3.523273    12.507390    -5.507460    -12.711965    16.233662    0.109466    15.020476    -0.108257    -5.113002    4.870650    -26.755676    -2.739157    8.592524    0.385452    -9.810151    -54.032738    -12.578737    5.732965    60.976711    -18.846710    -43.621777    26.925903    -15.418859    31.422483    -5.362286    1.881379    -4.657321    0.000000    0.000000    0.000000    0.000000    0.000000    0.000000    0.027976    0.000000    -0.000000    0.000000    0.000000    0.000000    0.000000    0.000000    0.000000    -9.584620    -1.513635    4.274859    -19.401781    0.000000    0.000000    -9.700892    0.000000    0.000000    -19.072580    -3.715693    8.243099    -38.803570    0.000000    0.000000    -19.401787    0.000000    0.000000    -28.704266    -6.631205    11.908493    -58.793293    0.000000    0.000000    -29.396641    0.000000    0.000000    -16.127388    5.342009    -2.333003    50.579826    60.473183    -13.829809    -74.495514    -24.454727    68.665993    14.052246    -16.076870    6.086048    4.892704    2.136650    -0.329710    0.000000    0.000000    -2.279955    0.000000    0.000000    -4.559911    18.701170    2.586306    7.593038    37.745651    0.000000    -0.000000    18.872826    0.000000    -0.000000    33.509491    1.836020    4.384614    61.589581    0.000000    -0.000000    33.552998    0.000000    -0.000000    48.248043    0.292859    1.475401    85.433510    0.000000    -0.000000    48.233166    0.000000    -0.000000    63.340408    -2.014532    -1.011111    110.000000    0.000000    -0.000000    63.358185    0.000000    -0.000000    22.797081    -20.977095    10.335783    -0.874229    30.883413    7.881608    -23.373652    1.802572    -25.169294    0.417282    1.256819    -0.864363    -28.777737    -3.440834    6.190180    -9.252006    38.226151    10.749057    28.665390    -19.735516    13.445733    -0.744476    -7.637588    0.391695    
-25.364292    73.314560    106.395485    3.528108    -1.098804    13.433520    3.171270    12.411937    -4.757150    -11.255708    15.484591    0.060010    15.079307    -0.074114    -5.438203    4.760646    -26.249084    -3.098359    8.712965    0.625775    -9.473451    -55.621010    -12.022205    5.624105    61.679741    -19.379038    -44.612061    26.684549    -14.995634    31.338823    -5.448908    1.885309    -4.771100    0.000000    0.000000    0.000000    0.000000    0.000000    0.000000    -0.131221    0.000000    0.000000    -0.262442    0.000000    0.000000    -0.131221    0.000000    0.000000    -9.745869    -1.528206    4.276956    -19.688210    0.000000    0.000000    -9.844106    0.000000    0.000000    -19.234949    -3.745089    8.244850    -39.113976    0.000000    0.000000    -19.556986    0.000000    0.000000    -28.867229    -6.675640    11.907440    -59.128403    0.000000    0.000000    -29.564201    0.000000    0.000000    -15.706333    4.705477    -2.126833    54.739933    60.829197    -15.151015    -75.063782    -21.509832    67.073219    13.495120    -16.632450    4.892402    4.904428    2.136572    -0.321644    0.000000    0.000000    -2.270701    0.000000    0.000000    -4.541401    18.638269    2.544219    7.497750    37.610008    0.000000    -0.000000    18.805002    0.000000    -0.000000    33.537643    1.886348    4.398287    61.498707    0.000000    -0.000000    33.583591    0.000000    -0.000000    48.374958    0.455643    1.573076    85.387405    0.000000    -0.000000    48.362190    0.000000    -0.000000    63.575756    -1.721902    -0.855475    110.000000    0.000000    -0.000000    63.588608    0.000000    -0.000000    23.416454    -21.013765    10.483578    -0.602850    29.854612    7.952800    -23.410505    2.184757    -24.968575    0.420017    1.280448    -0.867872    -28.344498    -3.590986    5.353454    -8.336742    36.791824    9.834525    28.179861    -18.007458    13.846633    -0.764618    -7.749751    0.412787    
